<svg viewBox="-5 -5 160 160" xmlns="http://www.w3.org/2000/svg">
  <circle cx="50" cy="50" r="50" fill="DodgerBlue" stroke="#000000" stroke-width="2"/>
  <circle cx="100" cy="50" r="50" fill="Gold" stroke="#000000" stroke-width="2"/>
  <circle cx="50" cy="100" r="50" fill="ForestGreen" stroke="#000000" stroke-width="2"/>
  <circle cx="100" cy="100" r="50" fill="RebeccaPurple" stroke="#000000" stroke-width="2"/>
  
  <path d="M75 75 L142.5 75 A50 50 0 0 1 75 142.5 Z" fill="RebeccaPurple"/>
  <path d="M75 75 L75 142.5 A50 50 0 0 1 7.5 75 Z" fill="ForestGreen"/>
  <path d="M75 75 L7.5 75 A50 50 0 0 1 75 7.5 Z" fill="DodgerBlue"/>
  <path d="M75 75 L142.5 75 A50 50 0 0 0 75 7.5 Z" fill="Gold"/>
  
  <line x1="75" y1="75" x2="75" y2="6" stroke="#000000" stroke-width="2" />
  <line x1="75" y1="75" x2="6" y2="75" stroke="#000000" stroke-width="2" />
  <line x1="75" y1="75" x2="75" y2="144" stroke="#000000" stroke-width="2" />
  <line x1="75" y1="75" x2="144" y2="75" stroke="#000000" stroke-width="2" />

  <circle cx="75" cy="75" r="42.5" fill="silver" stroke="#000000" stroke-width="2" />
 </svg>